<?xml version="1.0" encoding="utf-8"?>
<!-- Generator: Adobe Illustrator 26.3.1, SVG Export Plug-In . SVG Version: 6.00 Build 0)  -->
<svg version="1.1" id="Layer_1" xmlns="http://www.w3.org/2000/svg" xmlns:xlink="http://www.w3.org/1999/xlink" x="0px" y="0px"
	 viewBox="0 0 256 256" style="enable-background:new 0 0 256 256;" xml:space="preserve">
<style type="text/css">
	.st0{fill:#FFFFFF;}
</style>
<g id="_x23_ffffffff">
	<path class="st0" d="M88,27.2c-0.3-10.7,12-19.2,21.9-15.2c9,2.8,13.6,13.6,10,22.2c-3.4,8.1-13.5,12.4-21.6,9.1
		C92.1,40.6,87.4,34.2,88,27.2z"/>
	<path class="st0" d="M169.6,24.5c3-0.7,6-0.7,9.1-0.7l0.1,0.8c1.6,0.4,3.2,0.9,4.8,1.4c3.5,2.5,6,5.9,8.1,9.6c0,0.3,0,1,0,1.4
		c5.1,11.4,2.4,24.3,2.5,36.4l-0.9-0.2c-0.7,3.3,1.3,9.3-3.7,9.5c0.8,0,2.5,0.1,3.3,0.1l-0.3,1.3c5.1,0,9.6,2.7,12.2,7
		c1.9,0.4,3.8,0.8,5.7,1.3c2.4,0.7,4.9,1.5,7.3,2.2c2.3,1.1,4.6,2,7,2.9c0.7,0.4,2.1,1.1,2.8,1.5c1.8,1.1,3.5,2.3,5.2,3.5
		c0.4,0.4,1.2,1.3,1.6,1.8l1-0.1l0,1c4.3,4,6.9,10.6,4.6,16.3c-0.1,0.6-0.3,1.7-0.4,2.3c-0.4,0.7-1.1,2.1-1.5,2.8
		c-1,1.6-2.1,3.2-3.1,4.8l-0.5,0c-0.5,0.5-1.3,1.5-1.8,2l-0.1,0.9l-0.9,0c-0.5,0.5-1.4,1.4-1.9,1.8l-0.1,0.5c-3.1,2.1-6,4.7-9.3,6.4
		c-1.9,1.1-3.7,2.3-5.6,3.4c-2,0.8-3.9,1.7-5.7,2.9c-2.5,1-4.9,2-7.2,3.4c-0.3,0-1-0.1-1.3-0.1c-2.3,1.4-4.8,2.4-7.4,3.2
		c-0.6,2.5-1.3,5.1-2.1,7.6c-1.3,2.7-2.2,5.6-4,8l0,0.7c-1.5,2.2-2.9,4.6-4.7,6.7c0.1,0.8,0.4,2.3,0.5,3c0.8,1.8,1.6,3.6,2.4,5.5
		c1.3,4,3,7.9,3.6,12.1l0.6,0c0.4,1.9,0.8,3.7,1.4,5.5c0.3,2,0.6,3.9,0.8,5.9l0.7-0.5c0.4,8.3,1.9,17.1-0.7,25.2
		c-1.9,5.1-6.8,9.5-12.5,9.5c-3.9,0.4-7.8-0.5-11.5-1.9c-0.7-0.4-2.1-1.1-2.9-1.4c-8-4-14.8-9.8-21.3-15.8c-0.5-0.4-1.4-1.1-1.9-1.4
		l0-1l-1.4,0l0-1.4l-1.4,0v-1.4l-1,0c-0.4-0.5-1.1-1.4-1.5-1.8c-2.3-2.6-4.9-4.9-6.7-7.9c-0.9-0.1-1.9-0.2-2.8-0.3
		c-4.1,5.2-9.8,9-15.3,12.7c-2.1,0.9-4.1,1.9-5.9,3.2c-0.3,0-1,0-1.4,0c-3.2,2-7.3,1.5-10.9,1.4c-7.3-0.6-12.2-7.2-14.6-13.6
		c-0.7-2.1-1-4.3-1.2-6.5l-0.8,0.2c-0.1-1.8-0.2-3.6-0.3-5.4c-3.6,0.1-7.2,0-10.7-0.8c-2.7-1.5-5-3.5-6.9-5.9
		c-2.2-6.7-0.9-13.9,2.3-20c1.3-2.2,2.4-4.4,4-6.3c-8.7-0.8-17-3.9-25.4-5.9c0-0.2-0.1-0.6-0.2-0.8c-2.4-0.9-4.6-2-6.8-3.2
		c-3.8-2.3-7.3-5.1-9.9-8.8c-0.7-1.5-1.3-3.1-1.9-4.6c-1.1-2.5-0.8-5.3-0.9-7.9l0.8,0.4c0.4-1.7,0.9-3.4,1.4-5.1
		c3.2-5.9,8.4-10.4,13.6-14.5c2.4-1.4,4.8-3,7.2-4.6l0.6-0.1c2.1-1.5,4.5-2.6,6.7-3.8c0.7-0.3,2.1-1,2.8-1.4c2.5-1,5.1-2,7.3-3.5
		l1,0.4c1.8-1.3,3.9-2,6.2-2.1c-2.4-0.3-2.3-2.7-2.7-4.5c-0.8-2-1.1-4.1-1.4-6.2l-0.9-0.1c-0.1-1.9-0.3-3.8-0.4-5.7l-0.9,0.1
		c-0.2-2.8-0.4-5.7-0.5-8.5l-0.8-0.1c-0.1-3.8-0.1-7.5-0.1-11.3l0.8,0c0.2-2.2,0.4-4.3,1-6.4c3.6-9.9,15.7-11.6,24.3-7.5
		c0.7,0.3,2.2,1,2.9,1.4c2.5,1.4,4.9,2.8,7.3,4.3c4.7,3.7,9.6,7,13.5,11.6c-0.2-1.9-0.5-5.7-0.7-7.7l-1,0.1
		c-0.1-0.9-0.4-2.7-0.6-3.6c-1.1-1.8-1.1-3.9-1.3-5.9c0.9-0.4,2.7-1.3,3.6-1.7c1.2,0,3.6,0.1,4.7,0.1c0.2,1.8,0.4,3.7,0.6,5.5l0.8,0
		c0.2,2.2,0.4,4.4,0.6,6.6c1.1,2.7,1.2,5.6,1.6,8.4c1.4-0.9,2.6-2.2,3.5-3.6c4.4-6.9,9.4-13.3,14.8-19.5c0.3-0.4,0.9-1.2,1.2-1.6
		c2-2.3,4.1-4.4,6.2-6.5c1.7-1.6,3.4-3.2,5.1-4.8c0.4-0.4,1.2-1.2,1.7-1.6l0.6,0.1c1.5-1.4,3.2-2.8,4.9-4.1c2.6-1.4,5.1-2.9,7.5-4.5
		c0.3,0,1-0.1,1.4-0.1C166.6,25.8,168.1,25.2,169.6,24.5 M165.2,35.1c-0.3,0-1,0-1.3,0c-1.5,1.2-3,2.3-4.7,3.2
		c-2.7,2.1-5.4,4.4-7.7,6.9l-1,0l0.1,1c-0.4,0.4-1.3,1.2-1.8,1.6c-2.6,2.7-5.1,5.4-7.3,8.3c-1.4,1.8-2.8,3.5-4.2,5.3
		c-3.4,4.7-6.9,9.5-9.9,14.5c-1.4,1.9-2.5,3.9-3.3,6.1c7.2-0.7,14.4-0.6,21.6,0.2c1.8,0.6,3.6,1,5.5,1.4c2.4,0.9,4.8,1.8,7.1,2.8
		c5,1.9,10.5,0.6,15.7,0.9c0.6-3.8,1.7-7.6,2.2-11.4l0.7,0.2c0.2-6.8,2.4-13.3,1.9-20.1l0.9,0.4c0-2.4,0-4.8,0-7.2l-0.9,0.5
		c-0.1-2.9-0.2-5.8-0.3-8.8c-0.2-0.1-0.7-0.2-0.9-0.3c-0.4-2.7-2.1-4.7-3.7-6.8C170.9,33.7,167.6,33,165.2,35.1 M72.1,63.8
		c0.1,0.4,0.2,1.1,0.2,1.5c-2.7,5.1-0.7,11.1-1,16.6l0.9-0.1c0.1,2.4,0.3,4.7,0.5,7.1l1-0.1c0.1,1.4,0.4,4.2,0.5,5.7l1-0.3
		c0.1,1.5,0.2,3.1,0.3,4.6l1.4,0l-0.4,1.4c0.6-0.1,1.9-0.3,2.5-0.4c1.8-0.7,3.7-1.4,5.5-2.1c1.5-0.3,3-0.5,4.5-0.8
		c3.2-1,6.7-1.7,9.2-4.2c3.5-3.1,8.1-4.4,11.8-7.3c-1.4-1.1-2.7-2.4-4-3.7l-0.9,0c0-0.4,0-1.2,0-1.6c-0.4,0-1.2,0.1-1.6,0.1l0.2-1.4
		l-1.5,0l0-1.4l-1.4,0.1l0-1.4l-1,0c-1.6-1.7-3.4-3.3-5.3-4.7c-2.3-1.7-4.6-3.4-7-5c-0.7-0.4-2-1.1-2.6-1.5c-1.5-0.7-3-1.4-4.5-2.1
		C77.5,61.9,74.5,61.8,72.1,63.8 M188.2,99.6c-1.2,4.5-4.5,10-0.6,14.1c2.6-2.4,4-5.6,5.6-8.6c0.8-1.8,1.5-3.6,2.3-5.4
		c0-0.6,0-1.7,0-2.3C192.9,97.7,188.1,95.3,188.2,99.6 M205.9,99.7c-0.3,4-2.1,7.6-3.5,11.2c-0.9,1.5-1.8,3.1-2.7,4.7
		c-2.1,3.2-4.2,6.5-6.9,9.2c0.1,1,0.3,3.1,0.3,4.2c1.2,2.2,1.1,4.6,1.3,7c1.2-0.2,2.4-0.5,3.6-0.7c1.8-0.8,3.6-1.6,5.4-2.4
		c2.4-1.1,4.8-2.3,7.3-3.4c5.2-2.7,10-6.1,14.2-10.2c1.9-2.6,2.3-5.7,2.2-8.9c-1.9-2.2-4-4.2-6.4-5.9c-1.5-0.6-3-1.3-4.4-2
		c-1.4-0.6-2.8-1.1-4.2-1.6C210,100.4,207.9,100.1,205.9,99.7 M64.5,113.3c-1.8,0.8-3.6,1.5-5.3,2.3c-3.6,1.2-6.8,3.3-10.2,4.8
		c-3.6,2.1-7.1,4.6-10.5,7.1l-0.1,0.5c-0.5,0.5-1.4,1.4-1.8,1.9l-0.9,0l0.1,1.6l-1.6,0.1c0,0.4,0.1,1.2,0.1,1.7
		c-1.1,1.8-1.6,3.8-1.4,6c1.8,2.3,3.8,4.3,6.2,5.9c1.5,0.6,3.1,1.3,4.6,1.9c3.4,1.4,7,2.5,10.6,2.9l-0.1,0.8
		c2.8,0.2,5.6,0.4,8.4,0.4c0.1,0.3,0.2,0.8,0.2,1.1c3.7,0,7.4,0.2,11,0.4c-0.2-8.7-1.7-18.1,1.5-26.4c-0.3-0.6-0.9-1.9-1.2-2.6
		c-1.4-4.6-4.2-8.6-5-13.3C67.9,111.1,65.7,112.6,64.5,113.3 M77.9,169.6c-1.5,2.6-3.2,5.2-5,7.7c-1.2,2.4-2.6,4.8-3.6,7.3
		c-0.7,1.9-0.8,3.9-0.9,5.8c0.8,0.4,2.4,1.2,3.2,1.6c1.7,0,3.3,0,5,0c0.1-3.7,0.3-7.4,0.3-11.1c0.2,0,0.7-0.1,0.9-0.1
		C78,177.1,78.6,173.3,77.9,169.6 M85.2,180.4c-0.1,1.6-0.1,3.2-0.2,4.8l-0.8,1c0,0.9-0.1,2.6-0.2,3.5c1.2-0.1,2.4-0.3,3.6-0.4
		c1.8-1,3.8-1.5,5.9-1.7c-2.6-1.4-4.4-3.9-6.1-6.3C86.8,181,85.7,180.6,85.2,180.4 M162.6,196.2c-0.7,0.4-2.2,1.1-2.9,1.4
		c-1.9,0.8-3.9,1.5-5.8,2.3c-2,0.7-4.1,1.3-6.1,2c-3.1,0.4-6.2,0.6-9.4,0.8c0.4,2.2,1.1,4.3,3.1,5.5c0.4,0.4,1.3,1.1,1.7,1.5v0.6
		c2.4,2.2,4.4,4.6,7,6.6l0.1,0.9l1.4,0l0,1.4l1-0.1c0.4,0.4,1.3,1.3,1.7,1.7c3.7,3.5,7.9,6.5,12.1,9.3c1.9,0.9,3.7,1.9,5.5,3
		c2.1,0.5,4.2,1.1,6.4,1.7c1.7-0.9,2.8-2.4,3.6-4.2l0.7-0.2c0.2-4.7,0.1-9.5,0.1-14.2c-0.3,0-0.8,0.1-1.1,0.1
		c-0.1-2.4-0.2-4.8-0.4-7.2l-0.9,0.4c-0.2-2-0.4-4-0.5-6l-1,0c-0.1-0.9-0.3-2.8-0.4-3.7c-0.6-1.4-1.1-2.8-1.6-4.3
		c-1.1-2.9-2.4-5.8-3.1-8.8C172.3,191.7,166.4,193.3,162.6,196.2 M97.2,196.9c-1.4,0.6-2.8,1.1-4.2,1.5c-1.8,0.6-3.5,1.3-5.3,2
		c-1.3,0.2-2.5,0.4-3.8,0.6c0.1,0.8,0.2,2.4,0.2,3.2c1.2,3.4,1.9,7.2,4.6,9.9c2.3,0.8,4.8,0.8,7.2,0.7c4.1-2,8.1-4.4,11.7-7.3
		c1.7-1.7,3.5-3.3,5.4-4.8c0.3-1,0.6-1.9,0.9-2.9c-1-0.4-3.2-1-4.2-1.4c-1.5-0.7-3-1.4-4.4-2.2C103,193.9,99.8,195.6,97.2,196.9z"/>
	<path class="st0" d="M209.6,85.2c12.6-2.6,25-5.7,37.5-8.7c2.1-0.5,4.3-0.5,6.5-0.5c0.1,1.1,0.3,3.2,0.4,4.2c0.5,0.2,1.5,0.5,2,0.7
		c-2.3,2.2-5.4,3.3-8.6,3.5c-12.6,1.7-25.1,4.9-37.8,6C209.6,88.7,209.6,86.9,209.6,85.2z"/>
	<path class="st0" d="M24,168.2c5-0.2,10.1-0.6,15.1-0.4c-0.2,1.9-0.3,3.8-0.6,5.7c-2.5,0.2-5,0.4-7.5,0.6l0.8,0.9
		c-2.5,0.1-5.1,0.3-7.6,0.4c0.1,0.3,0.3,0.8,0.4,1.1c-2,0.1-4.1,0.2-6.1,0.3l0.3,1c-2.4,0.2-4.9,0.3-7.3,0.4
		c0.1,0.3,0.2,0.8,0.3,1.1c-2,0.1-4,0.2-6,0.3l0.1,0.9c-1,0.1-3.1,0.3-4.2,0.4l0-1.4l-1.6,0c-0.1-2.8-0.1-5.7,0.1-8.5
		c3.4-0.2,6.8-0.4,10.2-0.5l-0.7-0.8c4.9-0.1,9.8-0.5,14.7-0.6L24,168.2z"/>
	<path class="st0" d="M53.5,171.9c1.8-1.4,3.9-2.3,6.2-2.5c2.5,6.7-5.5,8.7-8.8,13c-1.2,0-2.3-0.1-3.5-0.1c-1.1-1.7-3.1-4.2-1.2-6.1
		C48.3,174.3,51.1,173.4,53.5,171.9z"/>
	<path class="st0" d="M194.8,186.4c-5.8-3.2-4.5-14.7,2.9-14.4c3.9-0.9,6.4,2.2,8,5.3c0.2,3.4-0.8,6.8-3.4,9.2
		c-1.6,0.3-3.5,0.2-4.4,1.9C197,187.4,195.9,186.8,194.8,186.4z"/>
	<path class="st0" d="M19.4,191.5c5-1.7,11.1-2.1,15.7,0.9c0.9,1.2,2,2.3,3.1,3.3c2.2,3.9,2.6,8.6,1.1,12.9
		c-2.9,7.1-12.1,10.2-18.7,6.5c-0.3,0-0.9-0.1-1.2-0.1c-0.5-0.5-1.6-1.5-2.2-1.9l-0.1-0.5c-4.4-3.9-4.8-10.5-2.6-15.7
		C16,195,17.6,193.2,19.4,191.5z"/>
</g>
</svg>
