<?xml version="1.0" encoding="utf-8"?>
<!-- Generator: Adobe Illustrator 26.3.1, SVG Export Plug-In . SVG Version: 6.00 Build 0)  -->
<svg version="1.1" id="Layer_1" xmlns="http://www.w3.org/2000/svg" xmlns:xlink="http://www.w3.org/1999/xlink" x="0px" y="0px"
	 viewBox="0 0 256 256" style="enable-background:new 0 0 256 256;" xml:space="preserve">
<style type="text/css">
	.st0{fill:#FFFFFF;}
</style>
<g id="_x23_ffffffff">
	<path class="st0" d="M70.3,31.6c15.5-14.4,45.9-4.4,48.1,17.3c-0.6,5-0.8,10.1-2.4,14.9c4.7,4.2,9,9,12,14.7
		c3-5.6,7.3-10.4,12-14.7c-2.2-8.2-4-17.9,1.3-25.4c5.3-8.8,15.6-12.9,25.5-13.7c9.1-0.3,18.4,4.1,23.3,11.8
		c3.6,5.7,5.5,12.3,7,18.8c11.3,5.2,20.9,14.2,26.2,25.5c8.6,19.6,17.2,39.2,25.9,58.8c2.8,5.9,5.3,12.1,6.4,18.6
		c2.3,19.6-4.8,40.2-19,54c-8.7,8.9-20.1,15.1-32.3,17.7c-14.9,3-31,0.6-44.1-7.3c-14.9-9.1-25.6-24-31.9-40c-0.2,0.3-0.7,0.9-1,1.2
		c-6.6,15.8-17.3,30.6-32.3,39.3c-15.6,9-35.3,10.6-52.1,4.3c-16.1-5.9-29.5-18.4-36.7-33.9c-5-11-7.2-23.3-5.8-35.3
		c1.2-7.3,4.3-14,7.4-20.7c8.3-18.9,16.6-37.8,24.8-56.6c5.3-11.4,15-20.1,26.2-25.6C61.6,47,63.5,37.7,70.3,31.6 M77.3,35.9
		c-5.5,3.8-7.6,10.6-9.6,16.7c14.1-3.5,29.4-0.8,41.9,6.5c0.5-3.6,1.2-7.3,1-11C107.2,34.4,88.6,28.2,77.3,35.9 M145.7,46.7
		c-0.8,4.1,0.3,8.4,0.8,12.4c12.4-7.8,27.9-9.9,42.1-6.7c-2.4-6.8-5-14.7-12.1-18C165.4,29.3,149.8,34.7,145.7,46.7 M77.7,58.7
		c-13.1,0.8-25.9,7.5-33.6,18.2c-4.7,5.9-6.8,13.3-10.1,20c-7.7,17.7-15.6,35.4-23.3,53.1c-5,11.4-3.5,24.6,0.7,36
		c6.7,18.4,23.2,32.7,42.3,36.7c12.4,1.9,25.6,0.7,36.6-5.7c15.6-8.8,25.7-24.7,31.9-41c1.3-2.9,1.3-6.5,3.7-8.8
		c2.3-0.8,5.2-0.3,5.7,2.4c3.8,13.1,10.3,25.6,19.4,35.8c10.3,11.5,25.5,18.8,41.1,18c11.7,0.4,23.1-4.1,32.4-10.9
		c16-11.8,25.4-32,23.6-51.9c-0.9-7.7-4.7-14.6-7.7-21.6c-7.6-17.1-15.1-34.3-22.6-51.5c-3.8-9.8-11-18.2-20.3-23.2
		c-10.7-6-23.8-7.2-35.5-3.8c-13.3,3.9-24.8,13.9-29.9,26.9c-0.8,1.8-1.8,4.1-4.2,3.6c-3.3,0.3-3.8-3.5-5-5.7
		C115.2,68.3,96.4,57.5,77.7,58.7z"/>
	<path class="st0" d="M124,111.1c1.4-2.2,3.7-2.8,6.2-2.3c0.8,1.4,2,2.7,1.7,4.5c-0.2,7.3,0.3,14.7-0.2,22c-1.6,3.4-7.2,2.7-7.5-1.2
		C123.9,126.3,124.2,118.7,124,111.1z"/>
	<path class="st0" d="M186.7,126.5c12-1.3,24.5,2.9,33,11.5c9.5,9.1,13.9,23.1,11.4,36c-2.9,16.8-17.5,30.8-34.4,32.8
		c-18.8,2.9-38.4-9.5-43.8-27.7c-3.3-10.6-2.3-22.7,3.4-32.3C162.4,135.5,174.2,128.1,186.7,126.5 M212.5,149.6
		c-1.6,1.5-0.6,3.6,0.2,5.3c3.9,8,2.9,18-2.4,25.1c-5.1,7.2-14.3,11.3-23.1,10.3c-3.8-0.3-7.3-2.1-10.8-3.6c-2.9,0-4.3,3-4.3,5.5
		c13.8,10.6,36.7,6.6,45.3-8.7c6.1-10,6.6-23.1,1.2-33.4C217.6,147.3,214,147.3,212.5,149.6z"/>
	<path class="st0" d="M53.3,127.6c18.6-5.4,40,4.9,47.4,22.7c5.5,11.9,4.4,26.5-2.6,37.6c-9.6,16.2-31.3,23.6-48.8,16.5
		c-15.3-5.6-26.2-21.3-26-37.7C22.9,148.9,36,132,53.3,127.6 M37.4,148.7c-7.2,11.2-5.8,26.8,2,37.4c9.6,12.7,29.3,15.8,42.4,6.9
		c3.2-2.5-1.6-8.1-4.7-5.7c-3.1,1.4-6.3,2.8-9.7,3c-9.9,1-20.1-4.6-24.5-13.5c-3.9-7.3-3.6-16.3,0.3-23.5
		C45,150.1,39.9,146.1,37.4,148.7z"/>
</g>
</svg>
