<?xml version="1.0" encoding="utf-8"?>
<!-- Generator: Adobe Illustrator 26.3.1, SVG Export Plug-In . SVG Version: 6.00 Build 0)  -->
<svg version="1.1" id="Layer_1" xmlns="http://www.w3.org/2000/svg" xmlns:xlink="http://www.w3.org/1999/xlink" x="0px" y="0px"
	 viewBox="0 0 256 256" style="enable-background:new 0 0 256 256;" xml:space="preserve">
<style type="text/css">
	.st0{fill:#FFFFFF;}
</style>
<g id="_x23_ffffffff">
	<path class="st0" d="M115,1.9c5-1.9,10.6-2.3,15.9-1.4c5.6,3.7,7.1,10.5,9.4,16.4c2.9,0.9,5.8,1.2,8.8,1.5
		c13.4,3.4,25.7,11.5,33.4,23c7.2,10,10.8,22.3,11.3,34.5c0.8,16.5-4.7,32.8-13.1,46.8c-2.3,3.9-5.5,7.3-7.5,11.4
		c-0.2,27.8,0.1,55.7-0.2,83.5c-0.6,5.1-3.1,10.3-7.5,13.1c-11.6,8.3-22.9,17-34.8,24.8c-4.8,0.4-10.5,1.6-14.6-1.5
		c-14.7-9.3-28.5-19.8-42.6-29.9c-5.8-3.6-11.3-9.1-11.5-16.3c-0.3-45.8,0-91.6,0-137.5C63.5,51,70.7,31.3,85.2,18
		C93.4,10,104,4.8,115,1.9 M95.2,20.5C79.2,33,71.8,53.7,70.9,73.6c0,44-0.2,88-0.1,132c-0.4,3.9,1.8,7.4,4.9,9.5
		c14.8,10.5,29.2,21.5,44.5,31.4c3.1,2.4,7.3,1.2,10.1-1c9.8-7.1,19.6-14,29.3-21.2c2.5-1.8,4.6-4.7,4.6-7.9
		c0.2-28.6-0.1-57.1,0.1-85.6c9.4-12.2,17.5-26,19.7-41.5c2.9-14.9-0.4-31.1-9.1-43.6c-7.1-10.5-18.7-17.6-31.2-19.8
		c-3.4-0.2-6.8,0-9.9-1.5c-2.6-5.3-3.7-11.3-6.9-16.3C115.6,9.6,104.4,13.5,95.2,20.5z"/>
	<path class="st0" d="M117.9,42.5c5.2-0.8,10.6-0.6,15.9-0.2c10.6,2.3,20.1,9.6,24.4,19.6c2.9,6,1.9,12.9,1.8,19.3
		c-2.3,10.3-10.1,18.9-19.8,22.9c-5.6,2.9-12.1,2.1-18.2,2.1c-6.8,0.2-13-3.4-18.3-7.3C94.2,91.2,89.4,77.8,93,66
		C96.1,54.3,106.3,45.4,117.9,42.5 M101.4,69.7c4.3,0,8.6,0.6,12.8-0.2c3-3.9,7.1-7.2,12.2-7.4c5,0.4,9.2,3.6,11.8,7.8
		c4.4-0.1,8.7,0,13.1-0.2C148.9,56,133,46.9,119.8,50.9C110.9,53,102.8,60.5,101.4,69.7 M101.8,81.2c4.5,14.8,23.7,21.8,36.9,14.2
		c6-3.6,12-9.6,12.4-16.9c-4.2,0-8.5,0.1-12.7,0c-3.3,5.7-10.7,9.9-17.1,6.6c-3.4-1.2-5-4.9-8-6.5c-3.9-0.2-7.8,0-11.7,0
		C101.7,79.2,101.7,80.5,101.8,81.2z"/>
	<path class="st0" d="M94.2,133c8.4-3.2,18.9,5.9,15.6,14.6c-1.4,4.9-6.2,7.7-11,8.6c-6.4,0.2-13-4.7-13.5-11.3
		C85,139.5,89.2,134.7,94.2,133z"/>
	<path class="st0" d="M88.2,168.1c3.3-1.4,7.2-0.4,10.7-0.7c3.6,0.3,8.6-1.2,10.6,2.8c0.3,3.3,1.2,8.2-2.8,9.5
		c-5.5,0.3-11.1,0.2-16.6,0.1c-2,0-4.1-1.9-4-3.9C86.1,173.2,85.2,169.5,88.2,168.1z"/>
	<path class="st0" d="M89.1,187.5c5.8-0.4,11.7-0.3,17.5,0c4,1.4,3.2,6,2.9,9.3c-0.1,1.8-2.2,2.9-3.9,2.9
		c-5.5,0.1-11.1,0.2-16.6-0.1c-3.8-1.1-3-5.5-2.9-8.5C85.9,189.2,87.9,188.3,89.1,187.5z"/>
</g>
</svg>
