<?xml version="1.0" encoding="utf-8"?>
<!-- Generator: Adobe Illustrator 26.3.1, SVG Export Plug-In . SVG Version: 6.00 Build 0)  -->
<svg version="1.1" id="Layer_1" xmlns="http://www.w3.org/2000/svg" xmlns:xlink="http://www.w3.org/1999/xlink" x="0px" y="0px"
	 viewBox="0 0 256 256" style="enable-background:new 0 0 256 256;" xml:space="preserve">
<style type="text/css">
	.st0{fill:#FFFFFF;}
</style>
<g id="_x23_ffffffff">
	<path class="st0" d="M113.6,54.1c11.8-19.2,26.3-37,44.8-50.1c4-1.6,7.9,2.7,5.8,6.5C157,26,150.5,41.8,145.4,58.1
		c4.1,1.5,8.1,2.9,12,4.8c1.7-2,3.4-4,5-6.1c6.6-7.4,13.6-14.6,21.2-20.9c1.7-1.6,3.9-2.4,6.1-3.1c1.8,1.5,4.3,3.4,3.4,6.1
		c-3.9,13.4-9.9,26.4-11.4,40.3c12.8,12.5,22.4,28.3,26.6,45.7c10.3-9,22.1-16.1,34-22.6c4.3-2,8.5,3.7,5.4,7.3
		c-17.9,31.6-29.7,66.3-37.7,101.6c10.1-8.2,21.6-14.8,34.1-18.6c3.6-1,7.6-2.9,11-0.3c0.2,0.8,0.7,2.3,0.9,3
		c-0.2,0.7-0.6,2.2-0.8,3c-15.6,11.6-28.8,27.3-35.2,45.9c-1.2,2.7-1.3,6.3-4.4,7.6c-1.7,0.1-3.4,0.1-5.2-0.1
		c-18.5,0.5-36.9,1.2-55.4,0.5c-3.1-5.8-0.8-12.5-1.3-18.7c-4.9,2.1-10,3.5-15,5.1c-1.7,4-3.1,8-4.8,12c-1.2,2-3.7,1.7-5.7,1.8
		c-16.4,0-32.9,0-49.3,0c-2.6,0.4-5.6-1.1-5.9-3.9c-0.8-6.8-1.5-13.6-2.8-20.4c-2.6-1.7-5.2-3.4-7.9-5c-0.4-0.5-1.3-1.4-1.7-1.9
		c2.1,8.6,4.1,17.3,3.9,26.2c0,2.4-2.1,4.8-4.6,4.6c-10.3,0.2-20.5,0.1-30.8,0c-3.5-0.1-4.7-3.9-5.6-6.7
		c-3.7-11.4-9.8-21.9-17.6-31.1c-2-3-5.4-5.3-6.2-8.9c0.2-3,2.8-4.7,5.6-5c0.8,0.4,2.3,1.2,3.1,1.6c1.3,0.7,2.5,1.5,3.8,2.2
		c2.1,1.1,4.1,2.1,6.2,3.1c-2.5-13.4-6.2-26.6-11.1-39.4c1.3-1.6,2.8-3.1,4.4-4.5c5.9,1.4,10.3,5.9,15.3,9.2
		c-6.3-23.6-3.5-49.5,8.6-70.8c7.2-13.1,17.8-24.1,30.1-32.5C59.9,50,51.6,31.6,43.4,13.2c0.5-1.1,0.9-2.2,1.4-3.3
		c3-2.4,6.6-1.1,9.2,1.1c17.7,11.1,31.2,27.6,42.1,45.2c1.7-0.3,3.4-0.5,5.1-0.8C105.3,54.5,109.4,54.3,113.6,54.1 M94,67.5
		c-21,6.1-39.3,20.9-49.7,40.2C33.1,127.9,31,153,38.9,174.9c6.7,19.6,21.2,36.5,39.6,46.1c20.9,11.3,46.7,12.8,68.9,4.3
		c19.6-7.4,36.1-22.5,45.2-41.3c8.8-17.8,10.9-38.9,5.6-58.1c-5.7-22-21.1-41.1-41.1-52C137.9,63.9,114.8,61.1,94,67.5z"/>
	<path class="st0" d="M95.2,103.8c8.2-4.9,18-8.3,27.6-6.1c9.5,1.7,18.9,7.8,21.8,17.4c2.8,10.5,0.4,22.9-8.1,30.1
		c-3.7,4-9.5,4.8-13,9c-0.5,4,1.4,9-2,12.1c-4.8-0.1-10.2,1.4-14.4-1.5c0.4-5.5-0.8-11.3,0.4-16.7c4-4.9,10.9-6.4,15.1-11.3
		c4.2-4.1,7-11.2,3.2-16.5c-3.2-4-8.7-6.4-13.9-5.7c-5,0.4-9.2,3.4-13.7,5.2c-3.8-0.7-5.1-5-7.5-7.5C89.6,108.5,92,105.4,95.2,103.8
		z"/>
	<path class="st0" d="M104.1,196.7c-2.5-6.5,3.8-14.2,10.6-13.3c7.7-0.4,13,9.2,8.9,15.6c-2.6,5.2-9.1,6.5-14.3,4.7
		C107.2,201.7,104.5,199.8,104.1,196.7z"/>
</g>
</svg>
